<?xml version="1.0" encoding="iso-8859-1"?>
<!-- Generator: Adobe Illustrator 19.0.0, SVG Export Plug-In . SVG Version: 6.00 Build 0)  -->
<svg version="1.1" id="Layer_1" xmlns="http://www.w3.org/2000/svg" xmlns:xlink="http://www.w3.org/1999/xlink" x="0px" y="0px"
	 viewBox="0 0 512 512" style="enable-background:new 0 0 512 512;" xml:space="preserve">
<g>
	<g>
		<path d="M481.065,292.93c-4.2,0-7.604,3.405-7.604,7.604v196.258H287.958c-0.007,0-0.013-0.001-0.019-0.001h-57.792V234.13H473.46
			v41.058c0,4.199,3.404,7.604,7.604,7.604s7.604-3.405,7.604-7.604v-95.805c0-4.199-3.404-7.604-7.604-7.604H295.543V7.604
			c0-4.199-3.404-7.604-7.604-7.604H30.935c-4.2,0-7.604,3.405-7.604,7.604v35.42c0,4.199,3.404,7.604,7.604,7.604
			c4.2,0,7.604-3.405,7.604-7.604V15.208h241.795v156.571h-57.792c-4.2,0-7.604,3.405-7.604,7.604v66.912H38.539V68.371
			c0-4.199-3.404-7.604-7.604-7.604c-4.2,0-7.604,3.405-7.604,7.604v436.024c0,4.199,3.404,7.604,7.604,7.604L481.065,512
			c4.2,0,7.604-3.405,7.604-7.604V300.534C488.669,296.335,485.265,292.93,481.065,292.93z M322.911,186.987H473.46v31.935H322.911
			V186.987z M230.147,186.987h77.556v31.935h-77.556V186.987z M214.939,496.791H38.539V261.502h176.399V496.791z"/>
	</g>
</g>
<g>
	<g>
		<path d="M65.909,118.555c-4.2,0-7.604,3.405-7.604,7.604v92.763c0,4.199,3.404,7.604,7.604,7.604c4.2,0,7.604-3.405,7.604-7.604
			v-92.763C73.513,121.959,70.11,118.555,65.909,118.555z"/>
	</g>
</g>
<g>
	<g>
		<path d="M65.909,281.27c-4.2,0-7.604,3.405-7.604,7.604v92.764c0,4.199,3.404,7.604,7.604,7.604c4.2,0,7.604-3.405,7.604-7.604
			v-92.764C73.513,284.674,70.109,281.27,65.909,281.27z"/>
	</g>
</g>
<g>
	<g>
		<path d="M351.803,263.021c-54.504,0-98.845,44.343-98.845,98.847c0,11.047,1.811,21.897,5.383,32.249
			c1.37,3.969,5.692,6.078,9.668,4.708c3.969-1.37,6.077-5.698,4.708-9.668c-3.02-8.753-4.55-17.934-4.55-27.289
			c0-46.118,37.52-83.639,83.638-83.639c46.118,0,83.638,37.52,83.638,83.639s-37.52,83.639-83.638,83.639
			c-26.249,0-50.468-11.969-66.447-32.837c-2.554-3.335-7.327-3.969-10.662-1.414c-3.335,2.553-3.967,7.326-1.415,10.66
			c18.881,24.657,47.502,38.799,78.522,38.799c54.504,0,98.846-44.342,98.846-98.847
			C450.649,307.364,406.307,263.021,351.803,263.021z"/>
	</g>
</g>
<g>
	<g>
		<path d="M393.801,397.781c-10.26-9.121-16.145-22.209-16.145-35.909c0-13.7,5.884-26.791,16.145-35.913
			c1.624-1.443,2.553-3.511,2.553-5.683s-0.929-4.24-2.552-5.683c-11.586-10.299-26.501-15.97-41.998-15.97
			c-34.874,0-63.247,28.372-63.247,63.247c0,34.875,28.372,63.247,63.247,63.247c15.497,0,30.412-5.672,41.998-15.97
			c1.623-1.443,2.552-3.511,2.552-5.683C396.354,401.292,395.425,399.223,393.801,397.781z M377.304,402.573
			c-7.598,4.768-16.417,7.333-25.501,7.333c-26.488,0-48.039-21.55-48.039-48.039s21.551-48.039,48.039-48.039
			c9.083,0,17.903,2.566,25.501,7.333c-9.526,11.33-14.856,25.739-14.856,40.704C362.448,376.832,367.778,391.244,377.304,402.573z"
			/>
	</g>
</g>
<g>
</g>
<g>
</g>
<g>
</g>
<g>
</g>
<g>
</g>
<g>
</g>
<g>
</g>
<g>
</g>
<g>
</g>
<g>
</g>
<g>
</g>
<g>
</g>
<g>
</g>
<g>
</g>
<g>
</g>
</svg>
