<?xml version="1.0" encoding="iso-8859-1"?>
<!-- Generator: Adobe Illustrator 19.0.0, SVG Export Plug-In . SVG Version: 6.00 Build 0)  -->
<svg version="1.1" id="Capa_1" xmlns="http://www.w3.org/2000/svg" xmlns:xlink="http://www.w3.org/1999/xlink" x="0px" y="0px"
	 viewBox="0 0 512 512" style="enable-background:new 0 0 512 512;" xml:space="preserve">
<g>
	<g>
		<path d="M426.745,48.938c-4.158,0-7.528,3.369-7.528,7.528c0,4.158,3.37,7.528,7.528,7.528c11.632,0,21.096,9.463,21.096,21.095
			c0,4.158,3.369,7.528,7.528,7.528c4.158,0,7.528-3.369,7.528-7.528C462.896,65.156,446.679,48.938,426.745,48.938z"/>
	</g>
</g>
<g>
	<g>
		<path d="M486.459,25.374C470.334,9.249,448.569,0,426.745,0c-4.158,0-7.528,3.369-7.528,7.528c0,4.158,3.37,7.528,7.528,7.528
			c37.308,0,70.033,32.725,70.033,70.031c0,4.158,3.369,7.528,7.528,7.528c4.158,0,7.528-3.369,7.528-7.528
			C511.833,63.265,502.584,41.499,486.459,25.374z"/>
	</g>
</g>
<g>
	<g>
		<path d="M426.745,24.681c-4.158,0-7.528,3.369-7.528,7.528c0,4.158,3.37,7.528,7.528,7.528c25.007,0,45.352,20.345,45.352,45.351
			c0,4.158,3.369,7.528,7.528,7.528c4.158,0,7.528-3.369,7.528-7.528C487.153,51.779,460.054,24.681,426.745,24.681z"/>
	</g>
</g>
<g>
	<g>
		<path d="M166.25,105.931c-1.365-1.365-3.242-2.208-5.32-2.208H49.871c-10.288,0-18.649,8.371-18.649,18.649v102.127
			c0,4.155,3.372,7.528,7.528,7.528c4.153,0,7.528-3.372,7.528-7.528V122.372c0-1.977,1.616-3.593,3.593-3.593H160.65
			c4.005,0,7.518-3.001,7.789-6.996C168.599,109.494,167.726,107.406,166.25,105.931z"/>
	</g>
</g>
<g>
	<g>
		<path d="M480.902,191.397H439.68v-76.924c0-23.768-19.331-43.099-43.099-43.099H43.266c-23.758,0-43.099,19.331-43.099,43.099
			v208.801c0,23.758,19.341,43.099,43.099,43.099h153.487v17.384h-30.101c-9.746,0-17.675,7.929-17.675,17.675v8.17
			c0,9.746,7.929,17.675,17.675,17.675h106.543c9.746,0,17.675-7.929,17.675-17.675v-8.17c0-9.746-7.929-17.675-17.675-17.675
			h-30.101v-17.384h114.473v114.884c0,16.953,13.791,30.744,30.743,30.744h92.592c16.963,0,30.754-13.791,30.754-30.744V222.14
			C511.655,205.187,497.864,191.397,480.902,191.397z M273.195,398.812c1.425,0,2.62,1.194,2.62,2.62v8.17
			c0,1.415-1.194,2.62-2.62,2.62H166.652c-1.425,0-2.62-1.204-2.62-2.62v-8.17c0-1.425,1.194-2.62,2.62-2.62H273.195z
			 M211.808,383.757v-17.384h16.23v17.384H211.808z M357.566,222.14v98.755H49.871c-1.977,0-3.593-1.616-3.593-3.593v-57.673
			c0-4.155-3.372-7.528-7.528-7.528c-4.154,0-7.528,3.372-7.528,7.528v57.673c0,10.278,8.361,18.649,18.649,18.649h307.696v15.367
			h-314.3c-15.487,0-28.044-12.556-28.044-28.044V114.473c0-15.487,12.556-28.044,28.044-28.044H396.58
			c15.487,0,28.044,12.556,28.044,28.044v76.924h-15.989v-69.025c0-10.258-8.391-18.649-18.649-18.649H196.341
			c-6.904,0-10.388,8.027-5.601,12.847c1.365,1.365,3.242,2.208,5.32,2.208h193.926c1.977,0,3.593,1.616,3.593,3.593v69.025h-5.269
			C371.327,191.397,357.566,205.157,357.566,222.14z M480.902,496.944H388.31c-8.652,0-15.688-7.036-15.688-15.688v-25.735H496.6
			v25.735h0C496.6,489.909,489.554,496.944,480.902,496.944z M496.6,263.131H424.74c-4.157,0-7.528,3.37-7.528,7.528
			s3.37,7.528,7.528,7.528H496.6v162.279H372.622V278.187h18.328c4.157,0,7.528-3.37,7.528-7.528s-3.37-7.528-7.528-7.528h-18.328
			V222.14c0-8.664,7.024-15.688,15.688-15.688h92.592c8.67,0,15.698,7.028,15.698,15.698V263.131z"/>
	</g>
</g>
<g>
	<g>
		<path d="M475.1,227.008h-24.922c-4.155,0-7.528,3.372-7.528,7.528c0,4.165,3.372,7.528,7.528,7.528H475.1
			c4.155,0,7.528-3.362,7.528-7.528C482.628,230.38,479.256,227.008,475.1,227.008z"/>
	</g>
</g>
<g>
	<g>
		<path d="M402.839,294.288h-8.72c-4.158,0-7.528,3.369-7.528,7.528c0,4.158,3.369,7.528,7.528,7.528h8.72
			c4.158,0,7.528-3.369,7.528-7.528C410.366,297.658,406.997,294.288,402.839,294.288z"/>
	</g>
</g>
<g>
	<g>
		<path d="M438.97,294.288h-8.721c-4.158,0-7.528,3.369-7.528,7.528c0,4.158,3.369,7.528,7.528,7.528h8.721
			c4.158,0,7.528-3.369,7.528-7.528C446.498,297.658,443.128,294.288,438.97,294.288z"/>
	</g>
</g>
<g>
	<g>
		<path d="M475.1,294.288h-8.72c-4.158,0-7.528,3.369-7.528,7.528c0,4.158,3.37,7.528,7.528,7.528h8.72
			c4.158,0,7.528-3.369,7.528-7.528C482.628,297.658,479.259,294.288,475.1,294.288z"/>
	</g>
</g>
<g>
	<g>
		<path d="M402.839,331.663h-8.72c-4.158,0-7.528,3.369-7.528,7.528c0,4.158,3.369,7.528,7.528,7.528h8.72
			c4.158,0,7.528-3.369,7.528-7.528C410.366,335.033,406.997,331.663,402.839,331.663z"/>
	</g>
</g>
<g>
	<g>
		<path d="M438.97,331.663h-8.721c-4.158,0-7.528,3.369-7.528,7.528c0,4.158,3.369,7.528,7.528,7.528h8.721
			c4.158,0,7.528-3.369,7.528-7.528C446.498,335.033,443.128,331.663,438.97,331.663z"/>
	</g>
</g>
<g>
	<g>
		<path d="M475.1,331.663h-8.72c-4.158,0-7.528,3.369-7.528,7.528c0,4.158,3.37,7.528,7.528,7.528h8.72
			c4.158,0,7.528-3.369,7.528-7.528C482.628,335.033,479.259,331.663,475.1,331.663z"/>
	</g>
</g>
<g>
	<g>
		<path d="M402.839,369.038h-8.72c-4.158,0-7.528,3.369-7.528,7.528c0,4.158,3.369,7.528,7.528,7.528h8.72
			c4.158,0,7.528-3.369,7.528-7.528C410.366,372.408,406.997,369.038,402.839,369.038z"/>
	</g>
</g>
<g>
	<g>
		<path d="M438.97,369.038h-8.721c-4.158,0-7.528,3.369-7.528,7.528c0,4.158,3.369,7.528,7.528,7.528h8.721
			c4.158,0,7.528-3.369,7.528-7.528C446.498,372.408,443.128,369.038,438.97,369.038z"/>
	</g>
</g>
<g>
	<g>
		<path d="M475.1,369.038h-8.72c-4.158,0-7.528,3.369-7.528,7.528c0,4.158,3.37,7.528,7.528,7.528h8.72
			c4.158,0,7.528-3.369,7.528-7.528C482.628,372.408,479.259,369.038,475.1,369.038z"/>
	</g>
</g>
<g>
	<g>
		<path d="M402.839,406.413h-8.72c-4.158,0-7.528,3.369-7.528,7.528c0,4.158,3.369,7.528,7.528,7.528h8.72
			c4.158,0,7.528-3.369,7.528-7.528C410.366,409.783,406.997,406.413,402.839,406.413z"/>
	</g>
</g>
<g>
	<g>
		<path d="M438.97,406.413h-8.721c-4.158,0-7.528,3.369-7.528,7.528c0,4.158,3.369,7.528,7.528,7.528h8.721
			c4.158,0,7.528-3.369,7.528-7.528C446.498,409.783,443.128,406.413,438.97,406.413z"/>
	</g>
</g>
<g>
	<g>
		<path d="M475.1,406.413h-8.72c-4.158,0-7.528,3.369-7.528,7.528c0,4.158,3.37,7.528,7.528,7.528h8.72
			c4.158,0,7.528-3.369,7.528-7.528C482.628,409.783,479.259,406.413,475.1,406.413z"/>
	</g>
</g>
<g>
</g>
<g>
</g>
<g>
</g>
<g>
</g>
<g>
</g>
<g>
</g>
<g>
</g>
<g>
</g>
<g>
</g>
<g>
</g>
<g>
</g>
<g>
</g>
<g>
</g>
<g>
</g>
<g>
</g>
</svg>
