<svg id="Capa_1" enable-background="new 0 0 512 512" height="512" viewBox="0 0 512 512" width="512" xmlns="http://www.w3.org/2000/svg"><g><path d="m32.5 405.123c-4.142 0-7.5 3.357-7.5 7.5v12.365c0 4.143 3.358 7.5 7.5 7.5s7.5-3.357 7.5-7.5v-12.365c0-4.143-3.358-7.5-7.5-7.5z"/><path d="m64.979 405.123c-4.142 0-7.5 3.357-7.5 7.5v12.365c0 4.143 3.358 7.5 7.5 7.5s7.5-3.357 7.5-7.5v-12.365c0-4.143-3.358-7.5-7.5-7.5z"/><path d="m97.458 405.123c-4.142 0-7.5 3.357-7.5 7.5v12.365c0 4.143 3.358 7.5 7.5 7.5s7.5-3.357 7.5-7.5v-12.365c0-4.143-3.358-7.5-7.5-7.5z"/><path d="m122.437 412.623v12.365c0 4.143 3.358 7.5 7.5 7.5s7.5-3.357 7.5-7.5v-12.365c0-4.143-3.358-7.5-7.5-7.5s-7.5 3.357-7.5 7.5z"/><path d="m112.953 159.43c4.142 0 7.5-3.357 7.5-7.5s-3.358-7.5-7.5-7.5h-30.99c-4.142 0-7.5 3.357-7.5 7.5s3.358 7.5 7.5 7.5z"/><path d="m459.686 134.053h-252.455c-17.685 0-33.686 8.693-43.273 22.861-3.162-3.156-6.543-6.139-10.137-8.926-5.663-4.393-8.911-11.006-8.911-18.143v-20.278c4.891-2.583 8.231-7.723 8.231-13.628v-26.026c0-8.492-6.909-15.401-15.401-15.401h-80.564c-8.492 0-15.401 6.909-15.401 15.401v26.026c0 5.905 3.341 11.045 8.231 13.628v20.278c0 7.137-3.248 13.75-8.911 18.143-26.116 20.257-41.095 50.81-41.095 83.824v202.934c0 12.54 10.202 22.742 22.742 22.742h149.432c5.979 0 11.536-2.287 15.684-6.247 8.104 3.991 16.843 6.247 26.049 6.247 2.137 0 4.28-.216 6.37-.643 10.998-2.242 22.15-2.243 33.148 0 2.09.427 4.233.643 6.371.643h196.954c16.68 0 30.25-13.57 30.25-30.251v-182.387c0-7.783 3.254-15.235 9.164-20.983 10.212-9.937 15.836-23.255 15.836-37.5 0-28.846-23.468-52.314-52.314-52.314zm-402.911-64.14c0-.222.18-.401.401-.401h80.564c.221 0 .401.18.401.401v26.026c0 .222-.18.401-.401.401h-80.564c-.221 0-.401-.18-.401-.401zm160.504 372.235c-1.105.226-2.24.34-3.373.34-35.196 0-61.759-44.684-66.363-80.78-1.737-13.614-.885-26.46 2.533-38.181 1.16-3.977-1.125-8.141-5.101-9.3-3.974-1.159-8.14 1.124-9.299 5.101-3.998 13.711-5.011 28.608-3.012 44.278 2.566 20.118 10.481 40.946 22.253 57.858v3.524c0 4.594 4.097 8.121 8.665 7.41 3.264 3.609 6.735 6.925 10.392 9.882-.58.137-1.183.208-1.799.208h-149.433c-4.269 0-7.742-3.474-7.742-7.742v-180.731h34.275c4.142 0 7.5-3.357 7.5-7.5s-3.358-7.5-7.5-7.5h-34.275v-7.202c0-28.345 12.862-54.577 35.289-71.973 9.353-7.254 14.717-18.187 14.717-29.994v-18.505h64.904v18.505c0 11.808 5.364 22.74 14.717 29.995 22.195 17.215 35.289 43.338 35.289 71.972v7.202h-95.641c-4.142 0-7.5 3.357-7.5 7.5s3.358 7.5 7.5 7.5h95.642v11.575c-9.89 5.025-18.658 11.782-25.903 20.033-2.733 3.113-2.425 7.852.687 10.585 3.113 2.732 7.851 2.425 10.584-.687 9.75-11.104 22.9-18.958 38.027-22.713 7.058-1.751 13.948.213 19.457 4.603 8.442 6.713 19.759 6.686 28.165 0 5.877-4.684 12.815-6.25 19.457-4.603 39.516 9.81 61.407 44.704 55.769 88.899-4.977 39.012-32.831 80.78-66.364 80.78-1.132 0-2.267-.114-3.373-.34-12.987-2.647-26.157-2.647-39.144.001zm14.572-176.677c.42-2.573-3.064-23.502 14.604-41.168l4.454-4.455c1.949-1.951 5.121-1.949 7.071 0 1.954 1.954 1.955 5.115 0 7.071l-4.455 4.455c-14.398 14.398-11.249 31.371-11.674 34.097-.085.066-.169.133-.253.2-3.088 2.456-6.552 2.339-9.493 0-.064-.05-.191-.151-.254-.2zm253.853-52.357c-8.837 8.598-13.704 19.868-13.704 31.736v182.388c0 8.409-6.841 15.251-15.25 15.251h-42.539c2.626-4.48 4.133-9.693 4.133-15.251v-78.985c0-4.143-3.358-7.5-7.5-7.5s-7.5 3.357-7.5 7.5v78.985c0 8.409-6.841 15.251-15.25 15.251h-88.625c22.321-17.905 37.779-49.169 41.569-78.882 6.561-51.435-20.378-93.774-67.035-105.356-5.753-1.428-11.549-1.453-17.111-.139.347-6.096 2.887-11.778 7.24-16.131l4.455-4.455c3.778-3.778 5.858-8.801 5.858-14.144 0-5.342-2.081-10.364-5.858-14.142-7.798-7.797-20.486-7.798-28.285.001l-4.454 4.455c-11.912 11.912-18.62 27.641-18.981 44.429-5.58-1.328-11.396-1.308-17.169.124-1.612.4-3.206.841-4.781 1.319v-27.757c0-23.082-7.322-44.96-20.653-62.958 6.425-12.154 18.956-19.802 32.967-19.802h183.799c20.575 0 37.314 16.739 37.314 37.314 0 10.161-4.012 19.66-11.295 26.747-8.837 8.597-13.705 19.867-13.705 31.735v68.402c0 4.143 3.358 7.5 7.5 7.5s7.5-3.357 7.5-7.5v-68.399c0-7.783 3.254-15.235 9.164-20.983 10.212-9.936 15.836-23.253 15.836-37.499 0-14.597-6.009-27.816-15.683-37.314h32.024c20.575 0 37.314 16.739 37.314 37.314.001 10.16-4.011 19.659-11.295 26.746z"/><path d="m469.844 178.867c-4.142 0-7.5 3.357-7.5 7.5 0 10.161-4.012 19.66-11.295 26.747-8.837 8.597-13.705 19.867-13.705 31.735 0 4.143 3.358 7.5 7.5 7.5s7.5-3.357 7.5-7.5c0-7.783 3.254-15.235 9.164-20.983 10.212-9.936 15.836-23.253 15.836-37.499 0-4.142-3.358-7.5-7.5-7.5z"/><path d="m444.844 291.605c-4.142 0-7.5 3.357-7.5 7.5v128.132c0 4.143 3.358 7.5 7.5 7.5s7.5-3.357 7.5-7.5v-128.132c0-4.142-3.358-7.5-7.5-7.5z"/><circle cx="315.824" cy="199.365" r="7.5"/><circle cx="216.851" cy="194.706" r="7.5"/><circle cx="360.583" cy="255" r="7.5"/><circle cx="373.424" cy="223.082" r="7.5"/><circle cx="346.333" cy="424.988" r="7.5"/><circle cx="373" cy="405.124" r="7.5"/></g></svg>