<?xml version="1.0" encoding="UTF-8"?>
<svg xmlns="http://www.w3.org/2000/svg" id="Layer_1" data-name="Layer 1" viewBox="0 0 512 512" width="512" height="512"><path d="M166.254,146.479a6,6,0,0,0-11.853,1.876l11.852,74.875a6,6,0,1,0,11.852-1.876Z"/><path d="M158.079,133.214a6,6,0,0,0,4.988-6.864l-.756-4.775a6,6,0,0,0-11.852,1.876l.756,4.775a6,6,0,0,0,5.919,5.063A6.086,6.086,0,0,0,158.079,133.214Z"/><path d="M238.625,445.44a26.133,26.133,0,1,0-26.133-26.132A26.163,26.163,0,0,0,238.625,445.44Zm0-40.266a14.133,14.133,0,1,1-14.133,14.134A14.151,14.151,0,0,1,238.625,405.174Z"/><path d="M90.771,81h8.5l23.784,30.082L157,328.682a6.09,6.09,0,0,0,5.927,5.176l4.074,0V359h-3.464C135.966,359,114,381.641,114,409.211V456.3a26.5,26.5,0,0,0-23,26.08V496a5.913,5.913,0,0,0,5.9,6H380.353A5.708,5.708,0,0,0,386,496V482.381c0-13.27-10-24.274-22-26.08v-47.09A50.482,50.482,0,0,0,313.715,359H310V334l3.542,0h0a6.111,6.111,0,0,0,5.946-5.32L326.738,275h48.906A51.351,51.351,0,0,0,427,223.529V117.457c0-3.314-2.458-6.457-5.771-6.457H348.888l4.087-30h6.153A5.675,5.675,0,0,0,365,75.26V73.63A33.614,33.614,0,0,0,331.128,40H319.253a34.1,34.1,0,0,0-33.709-30H164.356a34.1,34.1,0,0,0-33.709,30H118.771A33.529,33.529,0,0,0,85,73.63v1.63A5.591,5.591,0,0,0,90.771,81ZM374,482.381V490H103v-7.619A14.3,14.3,0,0,1,117.239,468H360.012A14.092,14.092,0,0,1,374,482.381ZM313.715,371A38.469,38.469,0,0,1,352,409.211V456H126V409.211C126,388.258,142.582,371,163.536,371ZM179,359V333.873l119,.112V359Zm129.3-37.138-140.237-.038-4.242-27.184,148.158.039Zm5.3-39.313-151.654.026L134.667,107.764a6.416,6.416,0,0,0-1.229-2.92L114.594,81H340.865ZM415,123V223.529A39.338,39.338,0,0,1,375.644,263H328.362l18.9-140ZM164.356,22H285.544c10.635,0,19.53,8,21.562,18H142.794C144.826,30,153.721,22,164.356,22ZM118.771,52H331.128c10.636,0,19.532,7,21.565,17H97.207C99.24,59,108.136,52,118.771,52Z"/></svg>
