<?xml version="1.0" standalone="no"?>
<!DOCTYPE svg PUBLIC "-//W3C//DTD SVG 20010904//EN"
 "http://www.w3.org/TR/2001/REC-SVG-20010904/DTD/svg10.dtd">
<svg version="1.0" xmlns="http://www.w3.org/2000/svg"
 width="1280.000000pt" height="1153.000000pt" viewBox="0 0 1280.000000 1153.000000"
 preserveAspectRatio="xMidYMid meet">
<metadata>
Created by potrace 1.15, written by Peter Selinger 2001-2017
</metadata>
<g transform="translate(0.000000,1153.000000) scale(0.100000,-0.100000)"
fill="#000000" stroke="none">
<path d="M12140 11523 c-90 -14 -197 -39 -275 -63 -49 -15 -119 -30 -155 -34
-36 -4 -117 -16 -181 -26 -549 -91 -1013 -314 -1349 -650 -521 -521 -802
-1276 -944 -2540 -36 -316 -50 -484 -101 -1235 -60 -875 -79 -1098 -126 -1475
-26 -211 -81 -537 -119 -710 -28 -126 -107 -427 -115 -441 -3 -3 -46 2 -97 12
-1290 252 -3089 151 -4725 -267 -568 -144 -1015 -301 -1373 -480 -468 -234
-660 -439 -595 -634 19 -59 102 -154 126 -146 107 38 1469 383 1834 465 548
123 1116 221 1590 276 564 64 1149 72 1610 19 1185 -134 2015 -659 2504 -1584
l55 -105 -79 68 c-360 310 -927 547 -1662 697 -748 153 -1682 200 -2533 130
-940 -79 -1778 -298 -2257 -591 -37 -23 -95 -50 -128 -61 -268 -88 -447 -280
-517 -553 -27 -103 -29 -313 -4 -423 38 -172 104 -326 204 -477 233 -350 583
-590 987 -677 99 -21 344 -15 440 10 164 44 308 134 414 257 51 60 124 206
148 295 25 92 25 365 0 468 -86 355 -325 685 -653 903 -99 66 -109 56 96 89
1132 180 2486 132 3679 -129 101 -22 186 -42 188 -44 2 -2 -17 -44 -42 -93
-102 -200 -118 -427 -50 -680 45 -164 108 -296 212 -442 236 -330 571 -551
958 -634 99 -21 344 -15 440 10 162 44 310 136 413 257 51 59 125 205 148 290
33 121 29 384 -7 502 -9 29 -5 41 47 129 140 238 236 553 275 904 17 146 17
532 1 675 -47 418 -158 770 -320 1020 -25 38 -84 109 -131 156 -70 70 -103 94
-174 129 -83 41 -88 45 -82 69 22 86 68 327 85 446 59 423 80 834 100 1905 13
758 27 1119 56 1485 100 1283 398 2042 949 2414 222 150 441 227 742 262 l113
12 67 -64 c234 -223 470 -284 673 -173 180 98 313 369 297 604 -18 249 -158
416 -392 465 -65 13 -205 18 -265 8z m-8351 -10077 c163 -66 305 -216 363
-384 33 -95 33 -235 0 -308 -100 -222 -401 -217 -627 10 -186 187 -240 446
-126 604 32 43 101 89 154 103 53 14 172 1 236 -25z m5393 -1 c226 -90 400
-348 386 -570 -22 -325 -380 -385 -653 -111 -120 120 -185 265 -185 410 0 144
86 264 213 297 55 14 171 1 239 -26z"/>
<path d="M2740 9683 c-815 -24 -1538 -167 -1982 -389 -769 -385 -952 -1046
-546 -1964 327 -740 1052 -1652 2068 -2600 150 -140 532 -479 557 -494 7 -4
-46 96 -118 221 -72 125 -203 354 -292 507 -152 266 -159 280 -141 293 33 25
243 147 384 224 243 131 553 273 843 385 l138 53 43 -67 c150 -236 380 -632
576 -992 70 -129 153 -282 185 -340 31 -58 54 -98 52 -89 -3 9 -22 78 -42 155
-108 411 -232 803 -386 1225 -44 122 -79 222 -77 224 31 28 1028 281 1042 264
2 -2 35 -84 75 -181 95 -237 193 -506 281 -773 39 -121 73 -224 75 -230 8 -23
4 205 -5 347 -21 314 -77 743 -116 879 -5 18 -5 18 326 63 209 28 705 76 791
76 l56 0 41 -167 c37 -156 71 -323 107 -533 13 -80 14 -66 9 250 -2 184 -7
362 -10 396 l-6 61 47 6 c61 9 888 7 1065 -2 74 -4 137 -6 139 -4 5 3 -181 89
-304 140 -252 105 -575 198 -840 243 -71 12 -136 25 -144 29 -9 5 -21 47 -33
117 -26 158 -85 437 -124 598 -19 76 -33 140 -32 141 4 3 269 22 498 37 205
13 1040 17 1305 6 l170 -6 -130 24 c-514 95 -1120 160 -1775 190 l-146 6 -18
67 c-48 172 -256 778 -341 994 -8 19 -73 20 730 -9 582 -20 1811 -77 2145 -98
105 -7 63 4 -220 58 -2605 499 -4445 704 -5920 659z m2643 -688 c178 -302 527
-945 527 -971 0 -8 -64 -12 -207 -13 -222 -2 -497 -14 -761 -32 -90 -6 -164
-10 -166 -8 -1 2 -43 76 -91 164 -160 287 -323 542 -532 827 -51 70 -93 130
-93 133 0 3 284 4 632 3 l632 -3 59 -100z m-1946 -67 c256 -311 569 -732 717
-967 33 -52 30 -56 -63 -65 -163 -17 -853 -123 -911 -141 -11 -4 -40 35 -100
133 -170 277 -402 616 -613 895 -66 86 -118 159 -116 161 20 19 756 110 925
115 l51 1 110 -132z m-1721 -571 c230 -234 523 -550 656 -707 l47 -55 -176
-44 c-230 -56 -551 -146 -815 -227 -166 -51 -213 -63 -219 -52 -31 48 -110
345 -130 487 -14 103 -7 313 15 396 24 89 99 232 158 299 58 66 175 166 194
166 6 0 128 -118 270 -263z m4415 -792 c97 -216 249 -600 249 -628 0 -9 -22
-11 -82 -5 -233 19 -847 3 -1048 -27 l-35 -6 -59 173 c-32 95 -87 245 -122
332 -36 87 -63 160 -62 162 13 12 1031 155 1078 150 8 -1 41 -62 81 -151z
m-1600 -222 c122 -218 262 -494 253 -502 -5 -4 -63 -18 -129 -31 -178 -34
-465 -103 -688 -166 -109 -31 -200 -54 -202 -52 -2 2 -27 55 -55 117 -28 63
-98 208 -156 323 -57 114 -104 212 -104 216 0 12 923 219 987 221 17 1 35 -23
94 -126z m-1560 -436 c75 -100 182 -247 238 -326 l101 -144 -182 -67 c-329
-120 -744 -292 -1067 -440 -74 -34 -139 -62 -143 -63 -17 -4 -458 806 -446
818 22 22 1290 404 1343 404 14 0 58 -51 156 -182z"/>
</g>
</svg>
